<svg xmlns="http://www.w3.org/2000/svg" version="1.0" viewBox="0 0 2084 2084" id="Cryptocurrency"><g transform="matrix(.1 0 0 -.1 0 2084)" fill="#595bd4" class="color000000 svgShape"><path d="M7820 16239 c-1227 -261 -1799 -387 -1830 -403 -64 -32 -103 -91
-107 -163 -3 -47 68 -394 360 -1763 l363 -1705 -565 -5 -566 -5 -73 -27 c-152
-55 -282 -169 -348 -303 -70 -144 -65 159 -61 -3476 l2 -3284 22 -75 c50 -169
108 -284 202 -402 180 -226 433 -365 724 -397 133 -15 7513 -15 7656 -1 423
44 787 339 907 737 10 32 20 61 24 65 3 4 41 17 84 28 370 94 658 383 768 768
21 74 22 99 25 586 l4 509 98 93 c138 132 223 259 278 419 58 168 56 139 60
959 3 480 1 789 -6 842 -13 106 -51 220 -103 309 -52 88 -172 208 -261 259
l-67 39 0 702 c0 763 -1 784 -57 938 -124 347 -389 588 -754 688 -80 22 -103
23 -511 27 -272 2 -428 7 -428 13 0 6 122 582 270 1280 149 699 270 1285 270
1302 -1 73 -69 162 -142 186 -66 22 -3610 771 -3646 771 -79 -1 -170 -70 -191
-144 -5 -20 -26 -117 -47 -216 -21 -99 -41 -176 -45 -172 -3 4 -61 268 -128
587 -68 319 -129 608 -138 641 -27 110 -104 174 -208 173 -27 0 -853 -171
-1835 -380z m1889 -1086 c118 -555 344 -1619 502 -2367 159 -747 289 -1364
289 -1372 0 -11 -21 -14 -99 -14 -96 0 -99 1 -105 24 -5 20 -230 1076 -731
3436 -70 327 -132 606 -138 620 -7 13 -28 35 -47 48 -30 21 -42 23 -92 17 -78
-8 -131 8 -184 57 -31 29 -48 55 -61 95 -18 57 -55 98 -99 109 -21 5 -1799
-364 -1917 -398 -21 -7 -49 -25 -63 -41 -21 -25 -24 -38 -24 -113 0 -49 -6
-98 -14 -118 -21 -51 -82 -104 -142 -123 -70 -22 -96 -50 -101 -110 -3 -36 84
-463 361 -1765 201 -945 366 -1722 366 -1728 0 -6 -39 -10 -99 -10 -86 0 -100
2 -105 18 -3 9 -34 154 -70 322 -36 168 -230 1078 -431 2024 -201 945 -363
1721 -360 1725 7 6 3106 669 3135 670 13 1 57 -196 229 -1006z m-849 343 c55
-91 186 -177 299 -198 l56 -11 409 -1926 c226 -1059 412 -1934 414 -1943 4
-17 -31 -18 -639 -17 l-644 0 85 19 c399 85 696 360 817 755 26 85 27 101 27
285 0 185 -1 200 -28 285 -15 49 -44 126 -65 171 -144 306 -430 526 -767 590
-121 22 -336 16 -451 -15 -363 -95 -633 -350 -753 -709 -133 -400 8 -875 337
-1142 133 -108 311 -191 479 -224 63 -13 33 -14 -347 -15 l-416 -1 -11 53
c-23 104 -712 3348 -712 3351 0 1 25 20 55 41 89 61 168 186 181 288 4 28 13
51 21 54 24 9 1587 341 1610 342 14 1 29 -11 43 -33z m3323 -545 c852 -181
1550 -331 1552 -333 3 -3 -237 -1140 -613 -2898 l-67 -315 -103 -3 c-56 -1
-102 -1 -102 2 0 2 124 586 275 1297 151 711 275 1308 275 1326 0 43 -49 99
-98 113 -117 32 -175 121 -164 252 5 66 -20 118 -66 137 -15 6 -452 101 -971
211 -829 176 -948 199 -977 190 -35 -12 -84 -62 -84 -86 0 -24 -36 -87 -67
-116 -45 -43 -95 -59 -176 -56 -78 3 -112 -10 -141 -55 -8 -12 -57 -219 -108
-459 -51 -241 -95 -438 -98 -438 -3 0 -27 105 -54 233 l-49 233 108 505 c58
277 111 526 117 552 9 45 12 48 36 43 15 -4 724 -154 1575 -335z m-116 -463
l812 -172 16 -72 c25 -114 100 -223 192 -282 27 -17 41 -33 39 -42 -3 -8 -118
-548 -256 -1200 -138 -652 -258 -1215 -266 -1252 l-16 -68 -50 0 c-39 0 -49 3
-45 14 14 35 18 208 8 293 -46 372 -273 688 -608 845 -194 91 -444 121 -651
79 -168 -35 -317 -102 -446 -201 -61 -47 -64 -48 -70 -27 -3 12 -37 171 -75
354 l-71 332 141 663 c77 365 142 663 142 664 1 0 27 5 59 11 114 23 226 97
292 192 16 23 31 41 35 41 3 0 371 -77 818 -172z m-3284 -1232 c152 -29 289
-100 405 -210 417 -395 301 -1080 -224 -1322 -393 -182 -868 -10 -1059 382
-196 400 -29 886 370 1079 165 80 335 104 508 71z m2807 -872 c167 -31 286
-92 408 -208 172 -164 254 -353 253 -586 0 -63 -4 -131 -9 -150 l-8 -35 -83
-3 c-76 -3 -83 -1 -77 15 4 9 9 36 13 58 l5 42 -67 14 -68 14 -4 63 c-4 84
-35 151 -94 207 -45 42 -114 84 -123 74 -2 -2 -22 -41 -44 -85 l-41 -82 40
-26 c22 -15 49 -41 59 -59 37 -60 19 -176 -34 -212 -11 -8 -40 -15 -64 -15
-66 0 -96 35 -111 130 -37 236 -62 304 -128 359 -52 43 -124 66 -208 65 -121
-1 -212 -59 -255 -165 -12 -28 -16 -31 -48 -25 -20 3 -38 10 -42 16 -14 22
-61 271 -55 289 3 11 44 55 89 99 188 177 446 254 696 206z m-4857 -781 c20
-98 37 -184 37 -191 0 -10 -123 -12 -617 -10 l-618 3 -42 29 c-73 49 -103 150
-69 229 18 41 75 95 112 107 16 4 283 9 594 9 l566 1 37 -177z m7739 163 c227
-44 400 -197 492 -436 21 -55 21 -60 24 -1277 l2 -1223 -214 0 -215 0 -3 833
-3 832 -27 98 c-53 193 -173 396 -304 516 -181 165 -416 270 -651 288 -45 3
-83 9 -83 14 0 9 70 339 75 357 6 19 806 17 907 -2z m-3224 -39 c28 -30 38
-62 57 -182 9 -55 18 -110 21 -122 6 -23 5 -23 -96 -23 l-102 0 26 34 c14 19
26 39 26 44 0 5 -16 22 -35 36 -105 81 -79 235 41 236 30 0 46 -6 62 -23z
m-1718 -746 c3871 -6 4068 -7 4125 -24 229 -69 395 -235 462 -462 15 -54 17
-136 21 -862 l3 -803 -161 0 -161 0 -25 30 c-36 42 -91 55 -143 34 -22 -8 -46
-26 -55 -38 -14 -22 -22 -23 -198 -29 -204 -6 -298 -22 -430 -71 -126 -47
-237 -118 -344 -220 -373 -352 -436 -903 -152 -1336 53 -81 194 -224 273 -277
201 -135 375 -183 657 -183 l169 0 38 -40 c33 -35 44 -40 82 -40 50 0 104 28
114 59 6 20 13 21 171 21 l165 0 -3 -782 -4 -783 -27 -81 c-80 -241 -281 -408
-532 -444 -46 -6 -1377 -10 -3806 -10 -4178 0 -3837 -6 -3999 72 -114 54 -238
176 -292 288 -73 149 -68 -114 -68 3104 l0 2898 28 -8 c15 -4 1856 -10 4092
-13z m5897 -2951 c-4 -394 -6 -405 -74 -540 -71 -140 -215 -257 -378 -307 -56
-17 -113 -18 -900 -18 -940 0 -881 -4 -1030 73 -88 46 -199 154 -248 243 -107
191 -101 433 14 625 70 117 200 219 339 267 65 22 66 22 1070 27 1085 6 1033
4 1162 59 l43 18 3 -46 c2 -25 2 -206 -1 -401z m-437 -1652 c0 -418 -4 -448
-68 -578 -59 -122 -212 -263 -334 -309 l-28 -11 0 630 0 630 188 3 c103 1 199
3 215 5 l27 2 0 -372z" fill="#595bd4" class="color000000 svgShape"></path><path d="M8008 15140c-98-52-113-202-27-274 116-98 279-22 279 130 0 127-136 205-252 144zM8108 14724c-34-18-58-62-58-106 0-39 85-439 102-482 15-38 64-66 115-66 53 0 109 45 119 95 4 22-11 112-45 272-49 233-51 239-86 271-28 26-43 32-77 32-24-1-55-7-70-16zM8275 13971c-100-46-132-159-70-252 29-45 79-69 143-69 57 0 104 26 140 80 20 29 23 45 20 95-5 74-33 119-92 146-52 23-90 23-141 0zM11897 14267c-96-59-112-181-34-266 88-95 257-47 287 82 23 104-48 197-157 204-48 3-65 0-96-20zM11825 13838c-37-34-38-36-86-259-53-244-56-276-35-318 44-84 179-84 219 1 24 52 111 481 103 512-3 14-19 40-34 57-23 25-38 33-79 36-47 5-54 3-88-29zM11677 13106c-50-18-76-42-98-91-22-47-23-66-8-120 24-86 119-139 207-114 114 32 161 164 95 266-37 56-129 84-196 59zM8775 12827c-93-31-150-80-184-158-11-25-30-104-41-175-24-153-34-180-71-199-59-31-124-13-153 43-44 87-20 181 60 228l43 26-44 89-45 89-38-19c-107-55-169-148-179-269l-6-70-45-7c-88-13-91-16-79-77 5-29 13-56 16-60 3-4 33-1 66 7 33 8 63 14 67 15 4 0 21-26 37-58 60-119 162-179 290-170 125 9 224 75 261 175 11 30 29 106 40 171 26 147 36 178 63 197 26 18 96 19 117 2 73-57 65-147-20-219l-40-35 54-76 53-77 46 31c76 50 118 122 126 219l6 64 45 9c25 5 48 12 53 16 4 4 2 33-5 65-12 64-2 60-96 40-25-5-30-2-47 35-25 55-79 109-134 134-56 25-162 32-216 14zM6093 10731c-34-10-74-26-88-35-29-19-55-71-55-108 0-34 35-85 69-103 37-19 65-19 138 0 34 9 102 15 171 15 127 0 162 11 187 60 32 62 11 146-45 175-43 22-293 20-377-4zM6673 10730c-86-52-82-169 7-215 42-22 408-22 450 0 79 41 79 179 0 220-23 12-70 15-227 15-179 0-201-2-230-20zM7338 10734c-78-42-76-178 2-219 42-22 408-22 450 0 68 35 89 108 50 172-35 58-57 63-277 63-156-1-204-4-225-16zM8003 10730c-86-52-82-169 7-215 42-22 408-22 450 0 79 41 79 179 0 220-23 12-70 15-227 15-179 0-201-2-230-20zM8668 10734c-78-42-76-178 2-219 42-22 408-22 450 0 68 35 89 108 50 172-35 58-57 63-277 63-156-1-204-4-225-16zM9333 10730c-86-52-82-169 7-215 42-22 408-22 450 0 79 41 79 179 0 220-23 12-70 15-227 15-179 0-201-2-230-20zM9998 10734c-78-42-76-178 2-219 42-22 408-22 450 0 68 35 89 108 50 172-35 58-57 63-277 63-156-1-204-4-225-16zM10656 10729c-35-28-56-70-56-115 0-29 8-44 39-75l39-39 212 0 212 0 39 39c31 31 39 46 39 75 0 45-21 87-56 115-25 20-39 21-234 21-195 0-209-1-234-21zM11323 10730c-61-37-82-123-42-174 41-52 62-56 274-56 216 0 242 6 270 60 32 62 11 146-45 175-23 12-70 15-227 15-179 0-201-2-230-20zM11988 10734c-78-42-76-178 2-219 42-22 408-22 450 0 68 35 89 108 50 172-35 58-57 63-277 63-156-1-204-4-225-16zM12653 10730c-61-37-82-123-42-174 41-52 62-56 274-56 216 0 242 6 270 60 32 62 11 146-45 175-23 12-70 15-227 15-179 0-201-2-230-20zM13324 10731c-66-29-87-132-38-190 15-19 42-35 67-42 59-15 142-72 178-122 38-52 62-66 118-67 36 0 49 6 76 33 69 69 51 150-57 258-96 98-269 162-344 130zM5810 10479c-75-30-100-112-100-326 0-171 8-201 60-228 58-30 144-11 172 38 8 14 15 82 19 182 4 88 10 181 14 206 9 58-11 100-59 123-38 18-69 19-106 5zM13628 10215c-52-29-58-56-58-270 0-218 5-240 63-275 61-37 142-18 172 41 14 25 16 65 13 244l-3 215-27 26c-33 34-117 43-160 19zM7571 10008c-111-17-211-92-268-200-25-48-28-62-28-158 0-95 3-110 27-157 39-73 83-120 145-155l53-30 0-378 0-379-248-3c-274-3-282-5-322-71-19-30-20-52-20-339l0-308-555 0c-610 0-598 1-630-60-12-23-15-73-15-258 0-222 1-230 23-263 13-19 38-39 57-46 26-9 218-12 728-12l692-1 0-220 0-220-41-21c-67-34-133-103-165-172-26-55-29-73-28-157 0-76 4-105 22-143 32-71 111-149 185-183 54-25 74-29 152-29 82 0 97 3 157 33 156 77 236 247 194 412-27 106-98 196-193 244l-33 17 0 219 0 220 360 0 360 0 0-221c0-237 7-275 54-302 16-9 199-13 725-17l705-5 29-50c42-73 84-112 157-148 59-29 73-32 160-32 82 0 103 4 151 26 77 36 130 87 170 161 29 55 34 74 37 153 3 75 0 100-19 150-31 82-121 173-204 205-81 32-188 32-267 1-70-27-155-102-189-165l-24-46-617 0-618 0 0 144 0 145 203 3c192 3 204 4 234 26 20 14 37 38 44 63 17 54-1 110-44 141l-32 23-1437 3-1438 2 0 65 0 65 545 0c592 0 590 0 633 55 22 27 22 35 22 341l0 314 510 0c564 0 562 0 600 62 38 62 19 142-43 175-27 15-64 18-249 21l-218 3 0 377 0 377 46 24c63 34 138 119 165 189 30 79 30 186-1 267-31 81-123 174-200 202-68 25-129 32-199 21zm135-282c28-28 34-42 34-76 0-34-6-48-34-76-28-28-42-34-76-34-34 0-48 6-76 34-28 28-34 42-34 76 0 34 6 48 34 76 28 28 42 34 76 34 34 0 48-6 76-34zm2383-2881c45-52 44-104-4-152-33-33-39-35-82-30-98 11-136 109-72 182 27 31 37 35 79 35 42 0 52-4 79-35zm-2691-351c13-9 30-31 38-51 18-41 8-82-28-120-69-73-203-1-184 99 6 33 44 79 76 91 22 9 70-1 98-19zM5768 9804c-52-28-58-54-58-269 0-218 5-240 63-275 64-39 137-18 172 50 22 42 22 408 0 450-29 55-117 77-177 44zM13634 9551c-62-38-64-45-64-269 0-225 5-249 62-278 46-24 122-14 156 20l27 26 3 215c3 179 1 219-13 244-30 59-111 78-171 42zM5774 9141c-62-38-64-45-64-272 0-194 1-208 21-233 28-35 70-56 115-56 29 0 44 8 75 39l39 39 0 212 0 212-39 39c-32 32-46 39-77 39-22 0-53-9-70-19z" fill="#595bd4" class="color000000 svgShape"></path><path d="M5773 8480c-58-35-63-57-63-275 0-216 6-242 60-270 62-32 146-11 175 45 22 42 22 408 0 450-35 68-108 89-172 50zM5773 7150c-58-35-63-57-63-275 0-216 6-242 60-270 62-32 146-11 175 45 22 42 22 408 0 450-35 68-108 89-172 50zM13628 6555c-52-29-58-56-58-270 0-218 5-242 62-271 46-24 122-14 156 20l27 26 0 225 0 225-27 26c-33 34-117 43-160 19zM5768 6484c-52-28-58-54-58-269 0-218 5-240 63-275 64-39 137-18 172 50 22 42 22 408 0 450-29 55-117 77-177 44zM13628 5895c-53-30-58-55-58-278 0-192 1-206 21-231 59-76 174-73 214 5 14 25 16 65 13 244l-3 215-27 26c-33 34-117 43-160 19zM5773 5820c-58-35-63-57-63-275 0-216 6-242 60-270 62-32 146-11 175 45 22 42 22 408 0 450-35 68-108 89-172 50zM13535 5268c-11-6-35-24-53-40-52-45-107-68-184-78-98-12-123-37-123-120 0-52 4-63 28-87 26-27 32-28 125-28 113 1 176 21 275 89 74 50 107 95 107 145 0 91-102 160-175 119zM5943 5215c-42-18-66-57-67-109-2-73 50-124 170-168 81-30 285-38 332-14 57 29 78 106 47 166-23 44-50 54-161 61-90 5-110 10-176 42-82 40-98 43-145 22zM6578 5135c-77-43-75-170 3-210 25-14 65-16 244-13l215 3 27 28c24 24 28 35 28 87 0 52-4 63-28 87l-27 28-218 2c-178 2-222 0-244-12zM7255 5141c-43-18-60-50-60-112 0-51 4-62 28-86l27-28 215-3c179-3 219-1 244 13 79 41 80 169 1 210-23 12-69 15-232 14-112 0-212-4-223-8zM7908 5135c-77-43-75-170 3-210 25-14 65-16 244-13l215 3 27 28c24 24 28 35 28 87 0 52-4 63-28 87l-27 28-218 2c-178 2-222 0-244-12zM8585 5141c-43-18-60-50-60-112 0-51 4-62 28-86l27-28 215-3c179-3 219-1 244 13 79 41 80 169 1 210-23 12-69 15-232 14-112 0-212-4-223-8zM9238 5134c-53-28-73-105-43-164 28-55 53-60 275-60 222 0 247 5 275 60 31 60 10 137-45 165-42 22-422 21-462-1zM9898 5135c-77-43-75-170 3-210 25-14 65-16 244-13l215 3 27 28c24 24 28 35 28 87 0 52-4 63-28 87l-27 28-218 2c-178 2-222 0-244-12zM10575 5141c-43-18-60-50-60-112 0-51 4-62 28-86l27-28 215-3c179-3 219-1 244 13 79 41 80 169 1 210-23 12-69 15-232 14-112 0-212-4-223-8zM11228 5135c-77-43-75-170 3-210 25-14 65-16 244-13l215 3 27 28c24 24 28 35 28 87 0 52-4 63-28 87l-27 28-218 2c-178 2-222 0-244-12zM11905 5141c-43-18-60-50-60-112 0-51 4-62 28-86l27-28 215-3c179-3 219-1 244 13 79 41 80 169 1 210-23 12-69 15-232 14-112 0-212-4-223-8zM12558 5135c-77-43-75-170 3-210 25-14 65-16 244-13l215 3 27 28c24 24 28 35 28 87 0 52-4 63-28 87l-27 28-218 2c-178 2-222 0-244-12zM13299 8166c-120-35-217-118-272-234-30-62-32-75-32-173 0-101 1-108 38-181 153-311 591-311 744 0 37 73 38 80 38 181 0 134-22 195-102 281-80 87-173 131-285 136-51 2-101-2-129-10zm153-246c41-12 104-75 114-115 26-102-54-205-158-205-149 0-221 161-121 271 48 53 97 67 165 49z" fill="#595bd4" class="color000000 svgShape"></path></g></svg>